<svg width="55" height="55" viewBox="0 0 55 55" fill="none" xmlns="http://www.w3.org/2000/svg">
<path d="M2 2L2 20.9894L21.9124 20.9894L15.071 27.5L21.9124 34.0106H2L2 53L53 53V34.0106V27.5L53 20.9894V2L2 2Z" fill="white"/>
<path fill-rule="evenodd" clip-rule="evenodd" d="M0.5 0.5L54.5 0.5L54.5 54.5L0.5 54.5L0.5 32.5106H18.1603L12.8951 27.5L18.1603 22.4894L0.5 22.4894L0.5 0.5ZM3.5 3.5L3.5 19.4894L25.6645 19.4894L17.2468 27.5L25.6645 35.5106L3.5 35.5106L3.5 51.5L51.5 51.5L51.5 3.5L3.5 3.5Z" fill="#7C7B7B"/>
</svg>
