<svg width="339" height="74" viewBox="0 0 339 74" fill="none" xmlns="http://www.w3.org/2000/svg">
<path d="M44.4956 2H337.222V71.4214H44.4956V2Z" fill="white"/>
<path fill-rule="evenodd" clip-rule="evenodd" d="M42.9956 0.5H338.722V72.9214H42.9956V0.5ZM45.9956 3.5V69.9214H335.722V3.5H45.9956Z" fill="#7C7B7B"/>
<path d="M24.6418 2.00001L4 2.00001L4 54.6447L14.4132 62.7438L4 72L46.2313 71.4215L63.5867 54.6447L63.5867 2.00001L42.3664 2.00001L33.5041 10.6353L24.6418 2.00001Z" fill="white"/>
<path fill-rule="evenodd" clip-rule="evenodd" d="M-0.00732422 73.5552L12.0688 62.8209L2.49989 55.3784L2.49988 0.500152L25.2516 0.500151L33.504 8.54116L41.7563 0.500151L65.0866 0.50015L65.0866 55.2811L46.8463 72.9133L-0.00732422 73.5552ZM5.49989 53.9112L16.7574 62.667L8.0071 70.4451L45.6162 69.9299L62.0866 54.0085L62.0866 3.50015L42.9762 3.50015L33.504 12.7298L24.0317 3.50015L5.49988 3.50015L5.49989 53.9112Z" fill="#7C7B7B"/>
</svg>
