<svg width="55" height="55" viewBox="0 0 55 55" fill="none" xmlns="http://www.w3.org/2000/svg">
<path d="M2 53L20.9894 53L20.9894 42.0876L27.5 46.929L34.0106 42.0876L34.0106 53L53 53L53 2L34.0106 2L27.5 7.46342L20.9894 2L2 2L2 53Z" fill="white"/>
<path fill-rule="evenodd" clip-rule="evenodd" d="M0.5 54.5L0.499998 0.500004L21.5353 0.500003L27.5 5.50526L33.4647 0.500002L54.5 0.500001L54.5 54.5L32.5106 54.5L32.5106 45.0723L27.5 48.7983L22.4894 45.0723L22.4894 54.5L0.5 54.5ZM3.5 51.5L19.4894 51.5L19.4894 39.1029L27.5 45.0598L35.5106 39.1029L35.5106 51.5L51.5 51.5L51.5 3.5L34.5566 3.5L27.5 9.42158L20.4434 3.5L3.5 3.5L3.5 51.5Z" fill="#7C7B7B"/>
</svg>
