<svg width="51" height="69" viewBox="0 0 51 69" fill="none" xmlns="http://www.w3.org/2000/svg">
<path d="M9.4225 7.82803L25.7097 1.08237L41.997 7.82803L48.7433 24.1133L41.997 40.3986L25.7097 47.1443L9.4225 40.3986L2.67616 24.1133L9.4225 7.82803Z" stroke="#7C7B7B" stroke-width="2"/>
<path d="M25.5 9.5625L35.6426 13.7637L39.8438 23.9062L35.6426 34.0487L25.5 38.2499L15.3574 34.0487L11.1562 23.9062L15.3574 13.7637L25.5 9.5625Z" fill="#7C7B7B"/>
<path d="M48.4957 60.9777L40.6255 40.5598L23.5628 46.6084L31.9159 67.9718L37.945 60.2787L48.4957 60.9777Z" fill="#7C7B7B"/>
<path d="M2.50441 60.9777L10.3746 40.5598L27.4373 46.6084L19.0842 67.9718L13.0552 60.2787L2.50441 60.9777Z" fill="#7C7B7B"/>
</svg>
