<svg width="45" height="45" viewBox="0 0 45 45" fill="none" xmlns="http://www.w3.org/2000/svg">
<path fill-rule="evenodd" clip-rule="evenodd" d="M22.5 42C33.2696 42 42 33.2696 42 22.5C42 11.7304 33.2696 3 22.5 3C11.7304 3 3 11.7304 3 22.5C3 33.2696 11.7304 42 22.5 42ZM22.5 45C34.9264 45 45 34.9264 45 22.5C45 10.0736 34.9264 0 22.5 0C10.0736 0 0 10.0736 0 22.5C0 34.9264 10.0736 45 22.5 45Z" fill="#7C7B7B"/>
<path d="M26.2305 7.56641L25.4492 28.4453H19.9609L19.1602 7.56641H26.2305ZM26.0742 37H19.3359V31.9219H26.0742V37Z" fill="#7C7B7B"/>
</svg>
